<svg xmlns="http://www.w3.org/2000/svg" width="40" height="40" viewBox="0 0 40 40"><g><g><g/><g><path d="M29.976.04c5.496 0 9.967 4.456 9.967 9.934v20.044c0 5.477-4.47 9.934-9.967 9.934H10.027c-5.496 0-9.967-4.457-9.967-9.934V9.974C.06 4.496 4.531.04 10.027.04h19.95zm6.276 29.978V17.072h-7.478c.576 1.218.9 2.576.9 4.009 0 5.203-4.248 9.436-9.468 9.436s-9.468-4.233-9.468-9.436c0-1.433.324-2.791.9-4.009H3.751v12.946c0 3.449 2.815 6.255 6.275 6.255h19.95c3.46 0 6.275-2.806 6.275-6.255zm-16.046-5.02a3.928 3.928 0 0 0 3.93-3.917 3.928 3.928 0 0 0-3.93-3.917 3.928 3.928 0 0 0-3.93 3.917 3.928 3.928 0 0 0 3.93 3.917zm16.046-11.605v-3.42c0-3.448-2.815-6.254-6.276-6.254H10.027c-3.46 0-6.275 2.806-6.275 6.255v3.42h10.975a9.434 9.434 0 0 1 5.479-1.749c2.04 0 3.93.65 5.479 1.748zm-4-7.442c.609 0 1.107.496 1.107 1.103v3.411c0 .607-.498 1.104-1.107 1.104H28.83c-.61 0-1.108-.497-1.108-1.104v-3.41c0-.608.498-1.104 1.108-1.104z"/></g></g></g></svg>