<svg xmlns="http://www.w3.org/2000/svg" width="40" height="40" viewBox="0 0 40 40"><g><g><g/><g><path d="M39.2 20c0 10.604-8.596 19.2-19.2 19.2S.8 30.604.8 20 9.396.8 20 .8 39.2 9.396 39.2 20zm-11.908-1.034l.726-.958c1.626-2.202 1.73-2.928 1.642-3.166-.05-.15-.316-.208-.704-.208h-3.562a.533.533 0 0 0-.248.058c-.104.062-.192.222-.222.274a19.428 19.428 0 0 1-1.19 2.548c-1.484 2.546-2.032 2.546-2.214 2.546a.432.432 0 0 1-.228-.066c-.524-.346-.5-1.188-.48-1.93 0-.136.006-.264.006-.384 0-.552.018-1.02.036-1.434.058-1.458.044-1.884-.616-2.042-.326-.082-.558-.14-1.458-.152h-.462c-.83 0-1.666.034-2.13.266a1.1 1.1 0 0 0-.398.338c.256.048.678.178.926.52.346.472.348 1.456.348 1.55.03.5.156 2.91-.52 3.286a.6.6 0 0 1-.278.072c-.518 0-1.164-.752-2.218-2.604-.65-1.136-1.046-2.146-1.154-2.4-.092-.218-.224-.464-.628-.464h-3.03c-.338 0-.648.194-.498.556.02.052 2.4 5.648 5.044 8.438 2.16 2.278 4.598 2.442 5.066 2.442h1.374c.254 0 .614-.262.614-.718 0-1.46.492-2.008.876-2.132a.61.61 0 0 1 .19-.03c.508 0 1.012.584 1.594 1.26.39.454.79.92 1.196 1.204.528.364.964.418 1.172.418h3c.164-.012.644-.148.784-.424.084-.166.044-.388-.126-.674-.004-.008-.01-.024-.022-.04-.418-.778-2.116-2.454-2.116-2.454-1.566-1.466-1.566-1.564-.092-3.496z"/></g></g></g></svg>